<?xml version="1.0" standalone="no"?>
<!DOCTYPE svg PUBLIC "-//W3C//DTD SVG 20010904//EN"
 "http://www.w3.org/TR/2001/REC-SVG-20010904/DTD/svg10.dtd">
<svg version="1.0" xmlns="http://www.w3.org/2000/svg"
 width="100%" height="100%" viewBox="0 0 1024.000000 1024.000000"
 preserveAspectRatio="xMidYMid meet">

<g transform="translate(0.000000,1024.000000) scale(0.100000,-0.100000)"
fill="#000000" stroke="none">
<path d="M4856 10020 c-1570 -93 -3027 -887 -3996 -2176 -119 -158 -280 -402
-385 -583 -160 -275 -373 -743 -447 -981 -33 -109 -32 -273 4 -382 52 -156
157 -297 285 -381 32 -22 492 -290 1023 -596 661 -382 964 -562 962 -572 -2
-8 -32 -113 -67 -234 -368 -1281 -328 -2366 110 -2935 110 -142 229 -238 445
-355 551 -300 1169 -490 1830 -562 205 -22 736 -25 935 -5 1095 111 2053 509
2917 1212 185 151 563 525 712 705 427 515 743 1052 968 1645 32 85 66 191 75
235 51 255 -78 548 -309 698 -29 20 -390 230 -803 468 -815 470 -1179 680
-1182 683 -1 0 18 66 43 146 181 591 276 1171 276 1685 1 476 -63 805 -218
1120 -106 217 -244 377 -428 497 -121 78 -474 253 -661 327 -567 223 -1107
331 -1725 345 -118 2 -282 0 -364 -4z m1325 -1919 c646 -113 1144 -581 1354
-1276 413 -1366 -331 -3228 -1663 -4162 -413 -290 -857 -467 -1283 -514 -150
-17 -437 -6 -563 21 -779 166 -1284 774 -1413 1700 -24 173 -24 603 0 782 75
563 245 1069 527 1573 81 145 267 423 373 557 597 763 1387 1255 2147 1338
130 14 387 5 521 -19z"/>
</g>
</svg>
