<?xml version="1.0" encoding="UTF-8"?>
<svg version="1.1" xmlns="http://www.w3.org/2000/svg" width="100%" height="100%">
<path d="M0 0 C0.48060054 5.35526316 0.48060054 5.35526316 -1.58984375 8.1328125 C-46.21372549 46 -46.21372549 46 -63 46 C-63 46.66 -63 47.32 -63 48 C-61.65027644 48.2540296 -60.29466084 48.47678888 -58.9375 48.6875 C-58.18339844 48.81511719 -57.42929688 48.94273437 -56.65234375 49.07421875 C-50.12513709 48.89157232 -45.27430795 44.96746611 -40.4375 41 C-33.33683203 35.2174201 -27.28569383 31.80303074 -18 32 C-11.58656539 33.01151485 -7.18460552 36.10795415 -2.25 40.16015625 C4.05420235 45.31515505 10.11518324 48.87501392 18 51 C18.04254356 52.99954746 18.04080783 55.00041636 18 57 C16.3959472 58.6040528 14.71890543 58.28596984 12.5 58.375 C4.25981601 58.25795193 -0.91920484 53.95845951 -7.0625 48.875 C-11.34092843 45.38348499 -14.58488518 43.22276786 -20 42 C-26.8174438 43.04224795 -30.89744369 45.70720789 -36.1875 50 C-45.1727196 57.1678892 -51.25863448 59.02970973 -63 58 C-68.47061368 56.61843824 -72.2545257 53.0034661 -76.5 49.4375 C-80.97331659 45.69842434 -84.27160928 43.22080458 -90 42 C-96.36334769 42.60603311 -99.83843694 45.0968767 -104.69140625 49.1171875 C-114.03873624 56.74055985 -120.85085378 58.91050648 -133 58 C-138.09449125 56.76631658 -141.73371995 53.44685724 -145.77636719 50.24047852 C-153.05824064 44.23264453 -153.05824064 44.23264453 -162 42 C-168.13488614 43.85060615 -172.33646704 46.44696368 -177.1875 50.5625 C-184.41495806 56.62092659 -189.51302007 58.66785163 -199.171875 58.49609375 C-210.09997013 57.07990183 -218.13887686 50.64724733 -225.59765625 43.0390625 C-228.24265362 40.79404034 -229.55065318 40.09148034 -233 40 C-240.31002533 42.5889673 -246.59087593 47.76122834 -252.58398438 52.5715332 C-258.46545914 57.28385428 -261.57403299 58.36521149 -269 58 C-270 57 -270 57 -270.0625 53.9375 C-270.041875 52.968125 -270.02125 51.99875 -270 51 C-269.42894531 50.75507813 -268.85789062 50.51015625 -268.26953125 50.2578125 C-259.70020058 46.30692872 -251.68822023 40.68822023 -245 34 C-245.77537109 32.69675781 -245.77537109 32.69675781 -246.56640625 31.3671875 C-247.2326409 30.20362275 -247.89795733 29.03953191 -248.5625 27.875 C-249.55443359 26.16957031 -249.55443359 26.16957031 -250.56640625 24.4296875 C-252.14636571 20.64983897 -252.08085292 18.88634546 -251 15 C-247.02311848 13.67437283 -243.07988023 13.5707408 -238.92582703 13.31028748 C-237.98575753 13.24817977 -237.04568802 13.18607206 -236.07713157 13.12208229 C-232.91323132 12.91406079 -229.74898858 12.711807 -226.5847168 12.50952148 C-224.32128264 12.36192477 -222.05787065 12.21398776 -219.79447937 12.06573486 C-213.63299837 11.66325367 -207.47119683 11.26589386 -201.30931067 10.86966968 C-196.16325461 10.53828232 -191.01736434 10.20436059 -185.87147361 9.87041718 C-173.02637266 9.03684961 -160.18096722 8.20810303 -147.33540729 7.38164575 C-136.89415584 6.70975271 -126.45320196 6.03338689 -116.01245117 5.35375977 C-103.87881711 4.56393755 -91.74499025 3.77720304 -79.61087352 2.99482399 C-73.19178257 2.58092096 -66.7727784 2.16577745 -60.35397911 1.74737358 C-54.30749742 1.35342062 -48.26074494 0.96391296 -42.21376228 0.57772827 C-40.00227289 0.43577663 -37.79087985 0.29231378 -35.57959747 0.14717293 C-3.86378279 -1.9318914 -3.86378279 -1.9318914 0 0 Z M-48.64306641 10.17749023 C-50.6315189 10.3042111 -52.61998884 10.43065847 -54.60847473 10.55685425 C-59.98653907 10.89900294 -65.36433972 11.24514134 -70.74209261 11.59214664 C-76.37964038 11.95536791 -82.01739552 12.31534368 -87.65512085 12.67579651 C-97.11885799 13.28138284 -106.58242676 13.8895478 -116.04589844 14.49926758 C-126.97817737 15.20359064 -137.91070687 15.90391507 -148.84338057 16.60208172 C-159.37487238 17.27471451 -169.9061861 17.95009706 -180.43741989 18.62675667 C-184.91323707 18.9142963 -189.38911329 19.20089073 -193.86503983 19.48672295 C-199.13636464 19.82347998 -204.40752869 20.1626527 -209.67857933 20.50367355 C-211.61024208 20.62826313 -213.54195788 20.75203341 -215.47373009 20.87491417 C-218.11550089 21.04309756 -220.75706086 21.21428489 -223.39859009 21.38621521 C-224.53819795 21.45771944 -224.53819795 21.45771944 -225.70082819 21.5306682 C-230.49748072 21.84698234 -235.23478817 22.36466109 -240 23 C-238.68 25.64 -237.36 28.28 -236 31 C-234.824375 30.9175 -233.64875 30.835 -232.4375 30.75 C-227.00851046 30.77867424 -223.16648413 32.86962394 -219.359375 36.61328125 C-218.53179687 37.48533203 -218.53179687 37.48533203 -217.6875 38.375 C-211.86673902 44.41663807 -204.74084188 48.77013312 -196.35546875 49.9921875 C-190.10834484 50.01290765 -185.99411355 46.02807691 -181.31665039 42.28735352 C-174.14056347 36.56119035 -167.92045282 32.52503345 -158.4375 33 C-151.05709347 34.23006776 -145.53523456 38.47521579 -139.875 43.125 C-134.92721916 47.1704035 -131.23123226 49.94016237 -124.625 50.0625 C-118.11456588 48.15426931 -113.14300912 43.88159093 -107.8125 39.8125 C-101.8727229 35.3459747 -96.51974125 32.80656614 -89 33 C-82.12275619 34.17775429 -77.52329055 36.88116475 -72 41 C-53.50941898 32.73688816 -34.39864836 23.38447917 -19 10 C-19 9.67 -19 9.34 -19 9 C-28.91339807 8.80660168 -38.75667499 9.53583642 -48.64306641 10.17749023 Z " fill="#000000" transform="translate(286,222)"/>
<path d="M0 0 C4.45572013 0.32049136 7.61651687 1.70056833 11.47265625 3.78125 C12.51691772 4.32700684 12.51691772 4.32700684 13.58227539 4.88378906 C15.70075477 5.99996935 17.80602869 7.13829193 19.91015625 8.28125 C20.81459473 8.76174805 20.81459473 8.76174805 21.73730469 9.25195312 C40.24997631 19.11002925 56.48852159 32.17553326 71.91015625 46.28125 C72.92513002 47.19213242 73.94078251 48.102259 74.95703125 49.01171875 C80.66482436 54.14215962 86.00097547 59.37127056 90.91015625 65.28125 C91.71710938 66.20035156 92.5240625 67.11945313 93.35546875 68.06640625 C116.93993352 95.02741661 146.07212537 138.76207752 143.91015625 176.28125 C143.25015625 176.94125 142.59015625 177.60125 141.91015625 178.28125 C136.45504874 177.93129971 131.68705321 176.29618865 126.59765625 174.46875 C120.22618609 172.26283259 113.87186492 170.41488251 107.28515625 168.96875 C106.56416748 168.80979248 105.84317871 168.65083496 105.1003418 168.48706055 C83.93001241 164.01916066 59.73529232 164.34027705 38.91015625 170.28125 C38.24854492 170.46316895 37.58693359 170.64508789 36.90527344 170.83251953 C25.55862204 174.02751271 14.16460418 178.85633778 4.0859375 185.00390625 C1.46632279 186.54181291 -0.09962532 186.68533357 -3.08984375 186.28125 C-5.08984375 184.28125 -5.08984375 184.28125 -5.45703125 181.9765625 C-4.96962518 178.39879456 -3.53503181 176.909968 -1.21484375 174.15625 C8.27271027 162.24337797 15.06805209 147.98100318 18.91015625 133.28125 C19.10335449 132.58080566 19.29655273 131.88036133 19.49560547 131.15869141 C30.26277893 90.96417365 19.10418695 47.85567805 -0.94042969 12.45874023 C-4.80610132 5.50554179 -4.80610132 5.50554179 -4.08984375 1.28125 C-3.08984375 0.28125 -3.08984375 0.28125 0 0 Z M11.91015625 15.28125 C12.18166504 15.93907471 12.45317383 16.59689941 12.73291016 17.2746582 C20.38549219 35.89442985 27.71735704 54.3205125 30.91015625 74.28125 C31.09449219 75.42335937 31.27882813 76.56546875 31.46875 77.7421875 C32.25842474 84.36355064 32.15452385 91.05915782 32.16015625 97.71875 C32.16116837 98.79213623 32.16116837 98.79213623 32.16220093 99.88720703 C32.14608326 110.64356602 31.68720007 120.83108911 28.91015625 131.28125 C28.7385498 131.93367676 28.56694336 132.58610352 28.39013672 133.25830078 C25.903411 142.48296429 22.41757501 151.17085151 18.4609375 159.85546875 C17.19954934 162.64196099 16.01656858 165.43073941 14.91015625 168.28125 C16.24392614 167.88689015 17.57712238 167.49059067 18.91015625 167.09375 C19.82667969 166.82175781 20.74320313 166.54976562 21.6875 166.26953125 C23.98033216 165.56639605 26.263418 164.83113388 28.5390625 164.07421875 C63.67677792 152.42083871 97.85506645 156.12313712 132.91015625 166.28125 C132.36897793 159.76102931 131.18427131 153.97489165 129.09765625 147.78125 C128.79706299 146.88833252 128.49646973 145.99541504 128.18676758 145.07543945 C118.1546263 116.48002277 102.07361235 90.8198163 81.31640625 68.83984375 C79.30822047 66.70451634 77.41184164 64.53051264 75.53515625 62.28125 C66.58471081 52.0126867 55.7743897 43.42340279 44.91015625 35.28125 C44.04970703 34.63542969 44.04970703 34.63542969 43.171875 33.9765625 C36.57523519 29.06258702 29.82034733 24.48328222 22.78515625 20.21875 C22.15746338 19.83638184 21.52977051 19.45401367 20.88305664 19.06005859 C17.91011313 17.2961256 15.27866747 16.01585756 11.91015625 15.28125 Z " fill="#000000" transform="translate(58.08984375,39.71875)"/>
<path d="M0 0 C15.80249793 8.16124191 29.58476764 19.62868587 42.20996094 32.04125977 C43.58524177 33.39318678 44.97745992 34.72783627 46.37207031 36.05981445 C51.49105195 41.01993115 56.06510248 46.3156804 60.46582031 51.92016602 C61.37692019 53.07756473 62.29414606 54.2301546 63.21582031 55.37915039 C76.12549692 71.49179601 87.13944295 88.79241175 95.76269531 107.56762695 C96.07432617 108.24164551 96.38595703 108.91566406 96.70703125 109.61010742 C107.64825615 133.44674734 107.64825615 133.44674734 106.76269531 140.56762695 C103.76269531 142.56762695 103.76269531 142.56762695 101.26269531 142.44262695 C97.76269531 141.56762695 97.76269531 141.56762695 95.66503906 140.6027832 C88.02263164 137.19942903 81.1497137 137.2992839 72.9362793 137.80371094 C72.05399658 137.84052979 71.17171387 137.87734863 70.26269531 137.9152832 C69.46863281 137.96692627 68.67457031 138.01856934 67.85644531 138.07177734 C65.76269531 137.56762695 65.76269531 137.56762695 64.13256836 135.48803711 C62.59348775 132.20689609 61.44163899 128.94869356 60.34472656 125.4934082 C59.89535091 124.09858114 59.44554628 122.70389224 58.99536133 121.30932617 C58.76390411 120.5858197 58.5324469 119.86231323 58.29397583 119.11688232 C54.15770049 106.24530906 49.84270399 93.67040844 43.76269531 81.56762695 C43.30749512 80.65303711 42.85229492 79.73844727 42.38330078 78.79614258 C36.79878329 67.64529229 31.19679975 56.61608246 23.76269531 46.56762695 C23.37903809 46.04555664 22.99538086 45.52348633 22.60009766 44.9855957 C17.05759834 37.48136358 11.17815279 30.34810184 4.76269531 23.56762695 C3.99441406 22.74649414 3.22613281 21.92536133 2.43457031 21.0793457 C-3.11799378 15.3207994 -9.04718603 10.44822205 -15.45214844 5.6965332 C-19.87613399 2.31494537 -19.87613399 2.31494537 -21.23730469 0.56762695 C-20.92480469 -2.61987305 -20.92480469 -2.61987305 -20.23730469 -5.43237305 C-13.72236329 -7.60402018 -5.86904917 -2.88059887 0 0 Z M19.76269531 25.56762695 C20.13056152 26.05666504 20.49842773 26.54570313 20.87744141 27.04956055 C22.50831219 29.22042038 24.13583305 31.39376172 25.76269531 33.56762695 C26.23352539 34.19443359 26.70435547 34.82124023 27.18945312 35.46704102 C35.94054269 47.20416544 43.14935217 59.51503629 49.76269531 72.56762695 C50.1982373 73.42388672 50.6337793 74.28014648 51.08251953 75.16235352 C59.48656601 91.95752215 65.09341138 109.71409883 70.76269531 127.56762695 C71.90867188 127.62821289 73.05464844 127.68879883 74.23535156 127.7512207 C75.76530828 127.83569684 77.29525572 127.92034122 78.82519531 128.00512695 C79.57736328 128.04444336 80.32953125 128.08375977 81.10449219 128.12426758 C85.70968273 128.38343415 90.20636255 128.84756905 94.76269531 129.56762695 C86.23761096 103.8054203 71.85242057 80.5173618 54.76269531 59.56762695 C54.30958984 59.01155762 53.85648438 58.45548828 53.38964844 57.88256836 C44.02932632 46.49032447 33.75542512 34.28390136 21.76269531 25.56762695 C21.10269531 25.56762695 20.44269531 25.56762695 19.76269531 25.56762695 Z " fill="#000000" transform="translate(152.2373046875,74.432373046875)"/>
</svg>
