<?xml version="1.0" standalone="no"?>
<!DOCTYPE svg PUBLIC "-//W3C//DTD SVG 20010904//EN"
 "http://www.w3.org/TR/2001/REC-SVG-20010904/DTD/svg10.dtd">
<svg version="1.0" xmlns="http://www.w3.org/2000/svg"
 width="100%" height="100%" viewBox="0 0 225.000000 225.000000"
 preserveAspectRatio="xMidYMid meet">

<g transform="translate(0.000000,225.000000) scale(0.100000,-0.100000)"
fill="#000000" stroke="none">
<path d="M900 1931 c-398 -85 -715 -372 -841 -760 -49 -154 -59 -250 -59 -593
l0 -308 105 0 105 0 0 63 c0 113 41 217 118 300 86 91 173 136 293 151 70 9
177 -12 249 -49 146 -74 250 -243 250 -407 l0 -58 106 0 107 0 -7 77 c-10 109
-30 191 -67 268 -82 173 -250 312 -435 359 -79 20 -241 21 -319 1 -33 -8 -95
-32 -137 -54 -43 -21 -78 -36 -78 -32 0 20 71 113 130 171 79 78 167 131 275
167 67 22 99 26 195 26 202 1 346 -58 485 -198 166 -167 215 -311 215 -636 l0
-149 100 0 100 0 0 193 c0 148 -5 212 -19 282 -66 319 -295 578 -598 675 -290
93 -562 45 -832 -147 -24 -17 -24 -17 -11 7 52 101 192 249 298 317 267 171
597 195 878 64 104 -49 158 -86 246 -170 143 -134 243 -320 277 -515 6 -34 11
-201 11 -383 l0 -323 106 0 106 0 -5 353 c-5 370 -8 403 -58 557 -125 384
-461 679 -859 754 -113 22 -320 20 -430 -3z"/>
</g>
</svg>
