<?xml version="1.0" standalone="no"?>
<!DOCTYPE svg PUBLIC "-//W3C//DTD SVG 20010904//EN"
 "http://www.w3.org/TR/2001/REC-SVG-20010904/DTD/svg10.dtd">
<svg version="1.0" xmlns="http://www.w3.org/2000/svg"
 width="100%" height="100%" viewBox="0 0 400.000000 400.000000"
 preserveAspectRatio="xMidYMid meet">

<g transform="translate(0.000000,400.000000) scale(0.100000,-0.100000)"
fill="#000000" stroke="none">
<path d="M1660 3274 c-178 -39 -339 -164 -418 -325 -74 -150 -72 -104 -72
-1231 l0 -1008 554 0 c634 0 656 2 796 72 150 75 268 218 317 383 16 55 18
136 23 895 l5 835 27 58 c35 74 55 98 194 230 l114 107 -738 -1 c-596 -1 -749
-4 -802 -15z m503 -449 c123 -37 219 -121 278 -243 32 -64 33 -72 33 -182 0
-110 -1 -118 -33 -182 -81 -168 -223 -258 -407 -258 -218 0 -396 151 -435 370
-37 210 86 412 301 492 57 21 198 23 263 3z"/>
<path d="M2020 2400 l0 -240 24 0 c33 0 101 25 137 51 16 11 43 44 59 72 42
74 42 160 0 234 -16 28 -43 61 -59 72 -36 26 -104 51 -137 51 l-24 0 0 -240z"/>
</g>
</svg>
