<?xml version="1.0" standalone="no"?>
<!DOCTYPE svg PUBLIC "-//W3C//DTD SVG 20010904//EN"
 "http://www.w3.org/TR/2001/REC-SVG-20010904/DTD/svg10.dtd">
<svg version="1.0" xmlns="http://www.w3.org/2000/svg"
 width="100%" height="100%" viewBox="0 0 100.000000 100.000000"
 preserveAspectRatio="xMidYMid meet">

<g transform="translate(0.000000,100.000000) scale(0.100000,-0.100000)"
fill="#000000" stroke="none">
<path d="M326 776 c-62 -23 -107 -75 -113 -130 -11 -91 24 -129 156 -172 90
-29 114 -46 109 -77 -8 -54 -129 -61 -214 -13 -26 14 -48 26 -50 26 -2 0 -4
-27 -4 -61 l0 -60 47 -21 c58 -25 163 -34 220 -19 105 29 162 135 118 221 -21
40 -59 64 -140 89 -84 26 -115 45 -115 70 0 60 119 62 233 3 4 -2 7 23 7 56
l0 60 -42 17 c-60 23 -164 29 -212 11z"/>
<path d="M675 375 c-49 -49 -16 -125 55 -125 44 0 80 35 80 77 0 34 -42 73
-80 73 -19 0 -40 -9 -55 -25z"/>
</g>
</svg>
