<?xml version="1.0" standalone="no"?>
<!DOCTYPE svg PUBLIC "-//W3C//DTD SVG 20010904//EN"
 "http://www.w3.org/TR/2001/REC-SVG-20010904/DTD/svg10.dtd">
<svg version="1.0" xmlns="http://www.w3.org/2000/svg"
 width="100%" height="100%" viewBox="0 0 225.000000 225.000000"
 preserveAspectRatio="xMidYMid meet">

<g transform="translate(0.000000,225.000000) scale(0.100000,-0.100000)"
fill="#000000" stroke="none">
<path d="M241 2239 c-30 -5 -74 -21 -98 -34 -51 -31 -108 -103 -126 -159 -18
-60 -18 -1783 1 -1843 18 -60 82 -136 136 -162 24 -12 73 -27 108 -32 39 -6
388 -9 908 -7 963 4 903 -2 991 89 89 91 83 31 87 989 2 565 -1 868 -8 915
-20 133 -110 224 -240 245 -81 12 -1682 12 -1759 -1z m1294 -305 c122 -39 223
-142 306 -309 66 -136 109 -314 109 -456 l0 -49 -308 0 -309 0 -6 -99 c-16
-244 -122 -495 -259 -615 -302 -264 -673 -6 -753 524 -8 52 -15 119 -15 148
l0 52 310 0 310 0 0 59 c0 129 53 341 116 461 122 233 314 342 499 284z"/>
</g>
</svg>
